<?xml version="1.0" encoding="utf-8" ?>
<svg xmlns="http://www.w3.org/2000/svg" xmlns:xlink="http://www.w3.org/1999/xlink" width="79" height="74">
	<path fill="white" transform="scale(0.120044 0.120044)" d="M0 197.608L-0 -0L328.007 0L346.442 0L659 0L659 206.696L659 207.425L659 622L337.402 622L322.546 622L-0 622L0 215.599L0 197.608ZM0 197.608L-0 215.599L0 622L322.546 622C319.331 621.035 315.927 620.01 313.089 618.154C309.259 615.65 306.855 611.652 304.495 607.856C300.58 601.558 296.711 593.916 291.15 588.949C283.022 581.689 271.756 577.785 262.496 572.038C250.516 564.6 242.306 549.478 238.552 536.246C237.382 532.12 236.706 527.932 235.704 523.786C234.523 518.907 234.365 513.786 233.814 508.824C231.731 490.081 232.72 470.82 232.221 451.965C231.843 437.678 230.945 422.996 225.945 409.465C218.581 389.539 206.808 372.006 194.701 354.698C173.392 324.234 149.013 293.624 136.826 258.067C134.197 250.395 132.436 242.691 130.632 234.807C128.389 225 128.021 214.343 127.99 204.305C127.863 163.221 139.503 124.924 161.357 90.21C167.397 80.617 174.753 71.6143 182.471 63.3413C188.202 57.1992 194.103 51.2557 200.558 45.8536C215.12 33.6669 231.664 24.089 249.26 17.0213L262.681 12.2194C264.397 11.6878 266.048 10.9553 267.806 10.5663L277.7 7.92045L302.31 3.18646L318.077 1.38679C321.48 1.05363 324.682 0.836104 328.007 0L-0 -0L0 197.608ZM346.442 0L346.919 0.120929C349.583 0.778383 352.224 0.744983 354.914 1.10806L368.113 3.25114C380.165 5.42016 391.41 10.105 403.015 13.7218C404.364 14.1424 405.571 14.9003 406.887 15.3957C411.948 17.2998 416.76 19.6634 421.593 22.1049C459.814 41.413 490.28 72.8452 509.984 110.692C512.27 115.083 514.143 119.786 516.038 124.354C526.259 148.984 530.963 175.675 531.094 202.274C531.186 220.939 529.039 239.682 523.245 257.491C518.628 271.682 511.589 284.564 503.97 297.324C494.083 313.882 482.605 329.664 471.314 345.289C457.229 364.779 442.45 385.647 434.399 408.514C431.611 416.434 429.252 424.312 427.979 432.633C423.785 460.038 429.146 488.096 425.872 515.549C425.128 521.789 423.767 527.729 422.332 533.829C421.987 535.293 421.346 536.682 420.891 538.113C414.304 558.804 397.329 571.261 379.49 582.044C375.216 584.628 369.936 586.949 366.575 590.654C364.612 592.818 363.448 596.02 362.131 598.623C357.079 608.606 350.856 618.086 339.475 621.374L337.402 622L659 622L659 207.425L659 206.696L659 0L346.442 0Z"/>
	<path fill="#44C7B1" transform="scale(0.120044 0.120044)" d="M327.361 374.644C330.192 374.707 332.878 375.033 335.671 375.492C341.684 385.89 342.412 397.432 342.456 409.193L342.166 435.81C338.838 437.085 335.75 437.5 332.207 437.782L320.252 437.512C319.329 431.133 317.773 424.422 317.364 418.017C317.091 413.742 317.512 409.293 317.65 405.005L318.498 379.269C321.36 377.246 323.904 375.46 327.361 374.644Z"/>
	<path fill="#44C7B1" transform="scale(0.120044 0.120044)" d="M267.375 181.14L270.681 181.226C273.749 181.548 278.224 181.945 280.971 183.251C283.159 184.29 285.365 186.675 287.18 188.274C294.396 194.633 301.648 201.223 307.701 208.729C310.539 212.249 313.428 216.099 315.642 220.039C316.014 220.7 316.885 221.909 317.035 222.626C317.259 223.699 316.866 225.454 316.748 226.543C316.463 229.184 316.064 232.13 314.843 234.53C312.878 238.395 308.86 241.27 305.549 243.932L304.823 244.127C303.761 244.248 302.362 243.855 301.325 243.618C295.386 242.263 289.896 238.159 285.399 234.233C281.426 230.765 277.756 226.929 274.049 223.181C268.559 217.631 262.356 212.043 259.246 204.717C257.475 200.546 257.023 196.239 256.719 191.758L267.375 181.14Z"/>
	<path fill="#44C7B1" transform="scale(0.120044 0.120044)" d="M272.905 456.105L400.578 457.726C401.987 458.594 403.179 460.217 404.299 461.437L402.037 465.13C399.724 468.237 396.758 469.515 393.218 470.726C386.679 472.963 379.832 473.506 373.021 474.476L284.223 486.592L269.287 487.609C264.885 487.804 260.276 487.982 255.996 486.789C255.473 484.131 255.443 481.35 255.347 478.647C255.108 471.875 255.542 465.474 256.572 458.78C261.79 456.649 267.347 456.363 272.905 456.105Z"/>
	<path fill="#44C7B1" transform="scale(0.120044 0.120044)" d="M388.047 188.965C389.214 188.878 390.342 188.844 391.496 189.073C393.364 189.445 397.308 190.582 398.29 192.252C400.064 195.27 401.836 200.283 401.362 203.796C401.01 206.407 399.548 209.278 398.279 211.567C388.832 228.6 370.517 239.44 356.996 252.951C353.2 256.744 349.529 260.637 346.665 265.206C344.912 268.002 344.314 270.973 343.933 274.223C343.263 279.932 343.607 285.894 343.595 291.652L343.398 332.384C343.019 341.002 342.026 349.963 339.724 358.287C337.839 359.958 333.176 360.981 330.706 361.848L327.223 362.949L320.466 358.752C320.096 355.344 320.183 351.821 320.085 348.388L319.555 331.723L318.229 286.296L317.468 262.826C317.41 260.738 316.902 257.617 317.288 255.621C317.541 254.304 319.38 251.976 320.129 250.846C332.663 231.929 350.916 216.669 367.804 201.78L374.681 195.674C376.283 194.224 377.932 192.54 379.77 191.394C382.011 189.997 385.482 189.481 388.047 188.965Z"/>
	<path fill="#44C7B1" transform="scale(0.120044 0.120044)" d="M397.098 492.447C397.571 492.379 398.017 492.346 398.495 492.359C400.624 492.419 402.163 494.173 403.584 495.674C403.878 499.052 404.504 503.361 403.539 506.638C402.934 508.695 401.691 512.282 399.753 513.365C397.582 514.579 394.668 514.785 392.231 515.075L379.86 516.392L328.881 522.767C318.884 524.005 308.568 524.756 298.698 526.7C296.003 527.231 293.292 527.944 290.887 529.309C286.407 531.852 285.76 535.937 284.566 540.513L290.77 546.875C293.62 547.573 297.005 547.417 299.95 547.484C318.194 547.9 336.351 545.456 354.347 542.753L391.56 536.363L394.165 540.476C391.688 544.204 389.273 548.878 386.208 552.101C382.936 555.541 377.632 558.164 373.391 560.311L366.722 562.782C358.639 565.129 350.034 566.121 341.668 566.808C332.136 567.591 322.631 567.738 313.089 567.045C303.134 566.322 293.262 565.052 284.422 560.092C265.627 549.546 258.242 530.268 252.645 510.622L397.098 492.447Z"/>
	<path fill="white" transform="scale(0.120044 0.120044)" d="M602.557 84.1139C604.584 83.9472 606.644 84.1825 608.594 84.7567L609.125 84.9191C611.309 85.5763 614.284 86.7882 615.796 88.5139C616.25 90.8541 615.487 93.9412 614.933 96.2521C612.787 98.6386 609.18 100.158 606.414 101.721C598.352 106.275 590.099 110.317 581.655 114.111C577.434 116.009 573.179 118.2 568.607 119.052C564.556 119.117 560.302 118.792 556.835 116.411C555.369 115.404 554.362 110.566 554.095 108.851C553.861 107.345 554.611 105.933 555.527 104.793C561.216 97.7095 572.084 93.7848 580.337 90.5672C587.415 87.8079 594.964 84.854 602.557 84.1139Z"/>
	<path fill="white" transform="scale(0.120044 0.120044)" d="M562.663 295.399C565.714 295.282 570.133 295.358 573.025 296.335C573.471 296.486 573.861 296.636 574.327 296.723C577.656 297.346 580.897 298.587 584.075 299.738C591.966 302.596 599.735 306.643 606.616 311.437C607.889 312.324 609.206 313.012 610.38 314.043C612.188 315.63 614.056 316.795 615.71 318.597L615.581 325.982C613.626 327.879 609.075 329.312 606.485 330.471C605.343 330.535 604.241 330.587 603.105 330.405C593.658 328.899 584.273 325.417 575.522 321.617C569.263 318.899 562.671 315.872 557.381 311.476C555.754 310.124 554.475 308.439 553.223 306.751C553.104 304.993 553.368 302.443 554.029 300.802C554.993 298.411 560.356 296.318 562.663 295.399Z"/>
	<path fill="white" transform="scale(0.120044 0.120044)" d="M659 207.425L658.273 210.28C657.943 211.492 657.488 213.221 656.265 213.8C655.034 214.382 653.098 214.506 651.754 214.73L642.75 216.142C629.647 217.717 616.788 219.07 603.554 218.888C595.612 218.778 586.904 218.286 579.53 215.119C577.139 214.092 575.552 213.478 574.565 210.958C573.446 208.098 572.673 204.069 574.212 201.216C574.99 199.773 576.207 199.662 577.659 199.226C580.067 198.503 582.683 197.784 585.17 197.428C589.531 196.803 594.041 197.071 598.43 196.897C615.451 196.22 632.606 195.204 649.347 198.943C651.497 199.424 654.438 199.891 656.317 201.026C658.328 202.24 658.495 204.583 659 206.696L659 207.425Z"/>
	<path fill="white" transform="scale(0.120044 0.120044)" d="M50.7336 82.486C52.373 82.3804 54.0421 82.2893 55.6616 82.6032C56.2106 82.7096 56.7237 82.8286 57.2824 82.8751C59.9159 83.0943 62.5184 83.9907 65.018 84.8249C70.5932 86.6856 75.8346 89.2061 81.0827 91.8114C84.3777 93.4472 87.8178 94.9926 91.0056 96.8195C97.5404 100.565 103.545 105.532 105.652 113.109C103.079 115.022 100.486 117.249 97.4694 118.396C89.0693 120.082 80.9825 115.252 73.1891 112.922C71.0562 112.284 69.1048 111.202 67.0548 110.346C60.9826 107.81 53.7275 104.994 48.597 100.846C44.0463 97.1676 43.0854 93.4452 42.5025 87.7994C44.6879 85.224 47.4836 83.361 50.7336 82.486Z"/>
	<path fill="white" transform="scale(0.120044 0.120044)" d="M91.2934 295.18C93.0355 294.947 94.9684 295.089 96.7349 295.075C99.832 297.012 101.819 299.403 102.769 302.956C103.069 304.076 103.934 307.02 103.384 307.925C97.6158 317.417 66.432 329.023 55.0017 331.597C52.6673 331.899 50.4756 332.014 48.1231 331.929C46.1427 330.492 44.8384 328.808 43.8451 326.567C42.9398 324.525 41.9189 319.677 42.807 317.596C44.5788 313.445 61.5327 305.207 66.0974 303.694L83.0186 297.404C85.8308 296.507 88.3274 295.531 91.2934 295.18Z"/>
	<path fill="white" transform="scale(0.120044 0.120044)" d="M0 197.608C16.4672 197.173 32.9292 195.763 49.4155 196.368L70.208 198.006C72.0814 198.206 73.8422 198.871 75.7383 199.026C78.064 199.217 82.112 200.063 83.6482 201.908C84.9709 203.496 85.6727 206.39 85.4148 208.416C85.1927 210.161 84.9167 212.063 83.4218 213.141C81.6694 214.404 79.7762 215.058 77.7092 215.598L77.2762 215.715C71.9874 217.086 66.0053 216.356 60.5975 216.635C45.5472 217.409 30.5166 218.707 15.4217 217.685C10.1924 217.331 5.1524 216.487 -0 215.599L0 197.608Z"/>
</svg>
