<?xml version="1.0" encoding="utf-8" ?>
<svg xmlns="http://www.w3.org/2000/svg" xmlns:xlink="http://www.w3.org/1999/xlink" width="87" height="74">
	<path fill="#45C7B0" transform="scale(0.10493 0.10493)" d="M409.227 345.116C415.002 344.286 421.969 345.241 427.749 345.962C430.653 348.027 434.377 352.53 436.11 355.604C437.85 358.692 438.85 362.574 439.195 366.11C439.708 371.369 439.269 376.913 439.378 382.206C439.785 401.942 440.016 421.599 438.575 441.296C438.093 447.876 437.775 455.294 435.963 461.643C435.806 462.194 435.747 461.92 436.375 462.333L449.614 470.683L471.526 483.535C490.386 494.282 509.78 505.345 526.943 518.688C531.57 522.286 536.384 525.803 540.352 530.156C544.016 534.175 547.087 538.761 548.825 543.946C549.322 545.429 550.294 548.491 550.137 549.975C549.908 552.16 547.717 556.254 546.648 558.318C544.306 562.843 540.021 566.551 535.027 567.898C532.282 568.638 529.38 567.946 526.66 567.409C516.533 565.407 506.859 560.112 497.966 555.021C479.282 544.325 462.06 531.529 444.622 518.972C437.946 514.164 431.586 508.963 424.501 504.749C423.02 503.962 419.672 501.865 418.137 501.795C415.893 501.693 411.875 503.802 409.929 504.908C402.758 508.984 396.089 514.151 389.19 518.692L344.952 547.85C336.196 553.72 327.35 561.235 317.457 565.069C313.353 566.66 308.053 567.148 303.707 566.545C298.885 565.877 294.727 563.39 290.717 560.77C289.925 560.253 288.428 559.469 287.985 558.615L287.783 558.017C286.023 553.189 286.026 549.851 287.847 545.092C290.411 538.391 295.499 533.239 300.515 528.312C303.065 525.808 305.654 523.119 308.548 521.012L317.327 514.055L346.965 493.973L384.672 470.545C388.727 467.903 393.717 465.285 397.18 461.943C398.047 460.175 397.486 458.142 397.282 456.247L396.098 446.44C395.188 440.334 395.009 434.067 394.458 427.919C392.556 406.684 388.34 364.447 401.452 346.676C403.974 345.711 406.567 345.435 409.227 345.116Z"/>
	<path fill="white" transform="scale(0.10493 0.10493)" d="M407.373 194.206L408.772 194.079C445.446 192.824 482.988 205.663 511.748 228.507C517.77 233.29 522.958 238.67 528.444 244.006C531.467 246.947 534.189 250.667 536.64 254.109C543.011 263.059 549.528 272.765 549.613 284.154C549.628 286.122 549.947 290.121 549.351 291.894C549.231 292.253 548.404 292.965 548.088 293.276C543.981 297.326 537.185 301.044 531.431 301.825C526.281 302.524 521.811 300.045 516.761 300.023L428.906 299.874L344.076 299.784L319.823 299.82C312.485 299.85 305.105 300.436 297.936 298.639C294.896 297.878 291.389 296.513 288.904 294.574C286.396 292.618 284.249 286.306 283.939 283.125C282.774 271.164 290.925 257.981 298.168 249.123C306.178 239.327 316.437 230.628 326.908 223.611C343.39 212.565 360.827 203.495 380.14 198.507C389.186 196.171 398.119 195.134 407.373 194.206Z"/>
	<path fill="white" transform="scale(0.10493 0.10493)" d="M0 681.064C9.60756 667.157 19.5283 653.799 31.5072 641.805C44.1324 629.163 58.3393 619.268 74.3704 611.484C78.4366 609.51 82.6285 607.328 86.9629 606.031L100.058 601.661C106.935 599.626 114.327 598.244 121.411 597.133C128.505 596.021 136.224 596.139 143.375 596.584C166.946 598.051 188.978 605.549 209.764 616.565C211 617.22 212.168 617.875 213.309 618.691L231.226 631.275C232.676 632.253 233.757 633.534 235.095 634.636C248.879 645.99 266.314 662.167 269.893 680.478C270.595 684.073 271.356 691.472 269.231 694.495C265.927 699.195 258.484 705.15 252.637 705.98C250.131 706.336 247.146 705.394 244.653 704.97L230.152 702.721C228.224 702.468 226.235 702.006 224.292 701.988C220.641 701.955 216.789 702.899 213.119 703.223C206.547 703.802 199.908 703.881 193.312 703.911L71.1737 702.934L44.9434 702.6C38.4307 702.676 31.9459 703.864 25.4402 702.815C15.5691 701.224 7.79033 695.448 -0 689.586L0 681.064Z"/>
	<path fill="white" transform="scale(0.10493 0.10493)" d="M833 692.329C826.273 696.093 820.554 702.718 812.701 704.189C801.879 706.217 790.177 701.792 779.296 702.165C776.959 702.245 774.51 702.868 772.167 703.165C768.258 703.66 764.371 703.885 760.434 703.981L726.436 703.745L630.269 703.378L604.716 702.989C602.101 703.021 599.415 703.09 596.821 703.433C594.158 703.784 591.533 704.457 588.837 704.509C578.286 704.713 570.809 698.931 563.51 692.02C563.219 688.138 562.491 682.679 563.433 678.912C564.613 674.19 568.648 668.41 571.274 664.32C587.96 638.323 614.506 618.017 643.172 606.979C647.675 605.245 652.479 603.193 657.199 602.189L664.153 600.425C670.71 599.321 677.069 597.717 683.727 597.052C691.484 596.278 698.932 596.754 706.664 596.753C709.348 596.753 711.704 597.411 714.322 597.81L724.604 599.694C747.679 604.709 770.504 615.274 788.666 630.479C793.662 634.662 798.337 639.129 802.947 643.738C813.994 654.783 824.465 667.541 833 680.645L833 692.329Z"/>
	<path fill="white" transform="scale(0.10493 0.10493)" d="M127.905 403.769C137.642 402.675 148.217 404.007 157.692 406.135C167.469 408.331 175.955 412.737 184.383 417.934C192.619 423.014 198.742 430.031 204.923 437.294C214.848 448.955 220.434 466.353 221.482 481.425C223.086 504.482 216.708 527.263 201.328 544.767C192.397 554.931 179.201 562.141 166.968 567.447C159.948 570.492 153.827 573.028 146.12 573.552L140.604 573.79C117.735 574.521 93.7456 565.913 77.0394 550.134C60.6041 534.612 53.1053 515.344 52.5113 492.86C51.9164 470.339 56.564 448.068 72.5186 431.316C82.0976 421.258 93.8282 414.238 106.576 408.931C111.124 407.038 116.009 404.92 120.898 404.109C123.15 403.736 125.622 403.826 127.905 403.769Z"/>
	<path fill="white" transform="scale(0.10493 0.10493)" d="M688.082 403.769C697.345 402.984 707.656 403.773 716.673 406.005C720.94 407.061 724.891 408.675 729.046 410.006C738.798 413.128 747.661 420.064 755.226 426.729C771.484 441.055 779.995 462.738 781.31 484.01C782.626 505.298 776.349 527.317 762.099 543.41C752.566 554.176 740.269 561.408 727.259 567.163C719.87 570.432 713.357 573.158 705.226 573.638C690.919 575.445 673.954 572.321 660.898 566.278C641.661 557.374 624.62 542.135 617.463 521.704C609.355 498.558 609.984 469.918 620.752 447.744C628.091 432.632 641.69 420.799 656.572 413.429C658.814 412.318 661.016 410.824 663.385 410.025C669.069 408.11 674.249 405.343 680.232 404.236C682.779 403.765 685.5 403.828 688.082 403.769Z"/>
	<path fill="white" transform="scale(0.10493 0.10493)" d="M404.025 0L422.457 0C427.236 1.39642 432.63 1.52331 437.567 2.63681C449.908 5.4207 463.179 12.2719 472.833 20.4248C474.787 22.0749 476.646 24.1755 478.505 25.977C481.861 29.2282 484.761 33.4973 487.286 37.4188C495.901 50.8004 501.794 66.3192 502.035 82.3564C502.366 104.347 495.256 127.566 479.498 143.443C469.556 153.46 456.79 160.23 443.819 165.432C440.277 166.852 436.68 168.464 432.946 169.297C427.822 170.44 422.464 170.512 417.236 170.527C393.953 170.592 372.028 161.124 355.576 144.734C339.099 128.321 331.016 108.608 331.028 85.366C331.04 63.4005 338.756 41.4259 354.472 25.6988C363.177 16.9885 373.697 10.8086 384.953 6.01508C391.374 3.2805 397.076 1.12612 404.025 0Z"/>
</svg>
