<?xml version="1.0" encoding="utf-8" ?>
<svg xmlns="http://www.w3.org/2000/svg" xmlns:xlink="http://www.w3.org/1999/xlink" width="44" height="72">
	<path fill="white" transform="scale(0.0685643 0.0685643)" d="M0 44.682L-0 -0L71.5865 0L96.6094 0L308.102 0L332.097 0L649 0L649 1060L529.8 1060L483.545 1060L-0 1060L0 302.299L0 260.526L0 247.267L0 194.964L0 151.98L0 100.033L0 67.6237L0 44.682ZM332.097 0L332.541 0.0953666C339.953 1.6304 348.205 1.19829 355.803 2.09222C370.908 3.8694 388.114 12.9009 396.649 25.6181C411.718 48.0712 408.471 80.3835 408.789 106.189C408.868 112.597 408.305 122.482 411.99 127.995C414.574 131.86 421.546 133.631 425.793 134.466C432.431 135.772 439.145 135.883 445.864 135.783C457.963 135.602 470.372 134.717 481.345 129.077L480.204 96.3493C479.955 72.1124 479.814 39.4164 496.499 19.8337C507.277 7.1832 523.545 2.20189 539.647 1.17533C547.598 0.668413 555.681 0.979772 563.647 1.0018C585.152 1.06126 612.595 0.453879 629.878 15.4861C644.394 28.1108 646.656 43.7966 647.783 62.0439C648.605 75.3618 647.502 88.8975 647.548 102.248L647.996 242.005L646.975 264.224L646.535 302.007C646.47 303.763 646.943 307.501 646.405 309.025C645.922 310.39 643.826 312.579 642.923 313.811L628.557 332.879L573.223 406.702C571.147 409.459 565.236 417.117 565.267 417.235C565.316 417.424 565.505 417.544 565.619 417.702C567.768 420.66 568.209 424.789 568.821 428.306L571.655 450.036L577.259 520.475L586.259 638.295L597.245 729.526C598.455 746.044 596.757 762.763 598.088 779.279L608.14 862.108L609.128 884.658L612.077 943.599C613.266 958.388 616.22 972.998 617.081 987.865C617.492 994.961 617.693 1001.95 616.368 1008.97C614.472 1019.02 610.629 1028.94 606.015 1038.05C605.316 1039.43 602.368 1040.72 600.999 1041.48C591.965 1046.5 582.479 1050.27 572.533 1053.05C564.623 1055.25 556.351 1057.01 548.194 1057.98L537.987 1059.09C535.411 1059.27 532.255 1059.22 529.8 1060L649 1060L649 0L332.097 0ZM0 302.299L-0 1060L483.545 1060C478.45 1058.62 471.248 1059.03 465.891 1058.89L433.502 1058.43C424.314 1057.44 414.617 1058.05 405.361 1058L347.576 1058.22L216.865 1056.42L124.954 1054.84L93.6397 1054.4C86.2147 1054.3 78.7383 1054.54 71.3887 1053.36C53.3224 1050.45 39.2572 1038.7 34.0401 1020.94C30.1065 1007.54 29.71 993.905 30.0813 980.05C30.5453 962.731 33.059 945.55 34.7011 928.331L42.7683 838.179L66.9422 550.444L72.1974 488.649L77.323 427.958L78.2413 417.101C78.3055 416.348 78.7198 414.4 78.5291 413.733C77.8453 411.34 74.6073 407.879 73.1258 405.8L59.5446 386.631L0 302.299ZM96.6094 0C101.994 1.14694 107.528 1.28422 112.968 2.28478C126.739 4.81793 146.541 11.4525 154.545 23.8291C159.957 32.1997 160.941 40.5977 162.828 50.0457C164.244 57.1371 164.113 64.9944 164.245 72.2333C164.481 85.2496 164.322 98.2714 166.027 111.198C166.829 117.275 168.04 125.044 171.822 130.125C189.213 137.451 215.269 139.175 233.007 132.014L237.775 129.816C239.309 103.566 235.914 77.2719 240.964 51.2221C243.658 37.3271 248.736 24.5891 259.5 14.9784C268.852 6.62766 284.036 2.85032 296.193 1.33015C300.151 0.835153 304.188 0.944557 308.102 0L96.6094 0ZM0 44.682C0.793894 41.8992 0.947513 38.9391 1.81017 36.0965C2.9291 32.4095 5.18529 28.7184 7.40753 25.5878C17.4014 11.5089 34.0887 4.48852 50.7374 2.25294C57.6879 1.31962 64.687 1.19215 71.5865 0L-0 -0L0 44.682ZM0 194.964L0 247.267L0.578648 247.393L1.23236 232.091L0.901503 209.019C0.76345 204.41 0.905211 199.492 0 194.964ZM0 100.033L0 151.98L0.0924442 151.993C1.13346 150.588 0.574395 105.019 0.607858 99.9307L0 100.033ZM0 67.6237L0 100.033L0.607858 99.9307C-0.0760167 92.4551 0.596072 84.3133 0.571784 76.7689C0.562221 73.7987 0.886816 70.4781 0 67.6237ZM0 247.267L0 260.526C1.38603 257.375 0.58495 250.963 0.578648 247.393L0 247.267Z"/>
	<path fill="#FDFFFF" fill-opacity="0.2" transform="scale(0.0685643 0.0685643)" d="M0 247.267L0.578648 247.393C0.58495 250.963 1.38603 257.375 0 260.526L0 247.267Z"/>
	<path fill="#FDFFFF" fill-opacity="0.58431375" transform="scale(0.0685643 0.0685643)" d="M0 67.6237C0.886816 70.4781 0.562221 73.7987 0.571784 76.7689C0.596072 84.3133 -0.0760167 92.4551 0.607858 99.9307L0 100.033L0 67.6237Z"/>
	<path fill="#FDFEFF" fill-opacity="0.94509804" transform="scale(0.0685643 0.0685643)" d="M0 100.033L0.607858 99.9307C0.574395 105.019 1.13346 150.588 0.0924442 151.993L0 151.98L0 100.033Z"/>
	<path fill="#45C6B0" transform="scale(0.0685643 0.0685643)" d="M452.143 544.126L454.633 544.002C471.762 543.553 490.314 554.241 502.322 565.786C508.116 571.355 513.336 578.175 515.635 585.974C516.928 590.358 516.555 595.23 516.64 599.76L517.318 615.692L519.936 659.265C520.061 666.696 520.406 679.193 514.736 684.873C510.466 689.151 499.232 687.476 493.478 687.461L456.589 687.484C450.98 687.482 444.674 688.042 439.14 687.353C437.766 687.182 436.605 686.596 435.513 685.766C429.169 680.945 427.01 670.383 425.956 662.947C422.063 635.501 424.622 606.048 428.951 578.804C430.313 570.235 431.514 558.788 436.884 551.818C440.677 546.895 446.193 544.912 452.143 544.126Z"/>
	<path fill="#45C6B0" transform="scale(0.0685643 0.0685643)" d="M182.471 433.919L182.846 433.894C199.726 433.315 218.704 443.955 230.487 455.415C236.143 460.916 241.477 467.402 243.913 475.032C245.278 479.309 245.134 483.874 245.214 488.31L245.799 504.775L248.421 546.993C248.54 555.035 249.294 568.82 243.304 574.782C239.853 578.216 235.294 577.539 230.818 577.553L219.697 577.539L183.655 577.569C178.75 577.564 172.858 578.162 168.064 577.406C166.502 577.159 165.037 576.511 163.803 575.525C156.662 569.818 154.906 556.844 153.881 548.33C150.734 522.168 153.4 494.126 157.583 468.236C158.956 459.737 160.057 448.322 165.586 441.507C169.961 436.115 175.886 434.565 182.471 433.919Z"/>
	<path fill="#152B37" transform="scale(0.0685643 0.0685643)" d="M216.865 1056.42L216.325 910.342L216.15 883.746C215.446 859.882 214.439 835.197 220.042 811.795C224.276 794.109 233.185 777.78 246.043 764.92C267.763 743.197 294.954 731.147 325.724 731.155C353.87 731.163 379.467 742.892 399.211 762.714C412.975 776.533 422.198 792.289 426.846 811.226C430.577 826.427 430.93 842.645 430.991 858.227L431.021 896.827L431.108 987.662L433.507 1057.67L433.502 1058.43C424.314 1057.44 414.617 1058.05 405.361 1058L347.576 1058.22L216.865 1056.42Z"/>
</svg>
