<svg xmlns="http://www.w3.org/2000/svg" width="40" height="40" viewBox="0 0 40 40" fill="none">
  <path d="M8.22862 5.25C8.96558 5.14976 9.88094 5.2718 10.6311 5.28248L15.3773 5.29616L34.7894 5.24036L34.7595 19.5184L34.7576 22.7192C34.7568 23.0043 34.8266 23.5165 34.7492 23.771C34.5613 24.389 33.3314 25.3672 32.8597 25.8371L27.4267 31.2825C27.1406 31.5695 26.863 31.823 26.4696 31.9562C26.1304 32.0711 25.5922 32.0061 25.2311 32.0078L22.1511 32.0236C21.9397 32.031 21.4759 32.0056 21.2919 32.0833C21.0779 32.1738 20.6991 32.637 20.5221 32.8155L18.0327 35.3484C17.8251 35.5549 17.5669 35.8446 17.2827 35.9393C16.8005 36.1 16.098 36.0137 15.5894 36.0138L12.0213 36.0069L11.9999 32.0086L5.32758 32.0051L5.22906 17.8641L5.22078 13.3583C5.22202 12.4818 5.14818 11.4673 5.35894 10.6145C5.55114 9.83672 6.11406 8.972 6.47626 8.24972C6.90774 7.38928 7.2973 6.39368 7.8331 5.5998C7.93458 5.44948 8.07562 5.34368 8.22862 5.25ZM10.6743 8.01276C10.9805 11.8004 10.7762 15.7323 10.7723 19.536L10.7715 23.6444C10.7746 24.6436 10.8283 25.64 10.6445 26.6266C12.3754 26.6052 14.3024 26.7698 16.009 26.518C16.0153 27.8428 15.8623 29.3949 16.0491 30.6904C16.7841 29.8019 17.5667 28.9946 18.3783 28.1761C18.9253 27.6244 19.4415 27.0456 20.1215 26.6562L25.7741 26.6218C26.4112 26.6245 27.2404 26.7368 27.8499 26.6166C28.2977 26.4621 28.4976 26.0955 28.8093 25.772L30.5453 23.9905C31.001 23.533 31.6911 23.0303 31.9993 22.4694L32.0011 8.00636L10.6743 8.01276Z" fill="white"/>
  <path d="M17.4454 12.05C18.2242 11.8403 19.2225 11.9742 20.0294 11.9915L20.044 18.9497L20.0339 20.6187C20.0298 20.7684 20.0614 21.0616 20.0159 21.1976C19.999 21.2483 19.8886 21.3516 19.85 21.3981L17.3778 21.4115C17.099 19.3596 17.2238 17.1689 17.2294 15.1017C17.2315 14.3218 17.0728 12.7316 17.4454 12.05Z" fill="white"/>
  <path d="M23.2056 11.95L25.3499 12.0409L25.4142 12.1538C25.5004 12.3242 25.4655 19.0875 25.46 19.972C25.4568 20.4842 25.5222 21.0185 25.1499 21.3863L22.719 21.3878C22.3966 19.3668 22.5967 17.0564 22.6112 15.0109C22.617 14.2096 22.4452 12.739 22.803 12.05L23.2056 11.95Z" fill="white"/>
</svg>